<?xml version="1.0" standalone="no"?>
<!DOCTYPE svg PUBLIC "-//W3C//DTD SVG 20010904//EN"
 "http://www.w3.org/TR/2001/REC-SVG-20010904/DTD/svg10.dtd">
<svg version="1.0" xmlns="http://www.w3.org/2000/svg"
 width="512.000000pt" height="512.000000pt" viewBox="0 0 512.000000 512.000000"
 preserveAspectRatio="xMidYMid meet">
<metadata>
Created by potrace 1.11, written by Peter Selinger 2001-2013
</metadata>
<g transform="translate(0.000000,512.000000) scale(0.100000,-0.100000)"
fill="#000000" stroke="none">
<path d="M390 5104 c-30 -8 -80 -26 -110 -41 -72 -35 -188 -151 -223 -223 -61
-126 -57 23 -57 -2280 0 -2303 -4 -2154 57 -2280 35 -72 151 -188 223 -223
126 -61 -23 -57 2280 -57 2303 0 2154 -4 2280 57 72 35 188 151 223 223 61
126 57 -23 57 2280 0 2303 4 2154 -57 2280 -35 72 -151 188 -223 223 -127 61
23 57 -2285 56 -1816 0 -2118 -2 -2165 -15z m2084 -1170 c9 -34 -15 -61 -63
-74 -20 -5 -92 -19 -161 -30 -148 -25 -221 -55 -250 -102 -19 -32 -20 -49 -20
-521 l0 -488 94 3 94 3 491 483 c472 465 491 485 491 521 0 74 -29 91 -200
115 -58 8 -118 19 -132 25 -29 11 -43 40 -33 71 6 20 13 20 613 18 l607 -3 3
-23 c2 -13 -2 -29 -8 -37 -15 -18 -130 -55 -295 -95 -201 -49 -260 -81 -380
-203 -55 -57 -248 -254 -428 -439 l-328 -337 491 -678 c271 -373 504 -690 518
-705 34 -37 80 -57 282 -124 191 -63 235 -87 235 -124 l0 -25 -740 0 -740 0
-3 27 c-4 37 27 51 173 78 66 11 133 29 150 39 40 23 54 64 35 97 -8 14 -190
281 -405 594 l-389 570 -98 0 -98 0 0 -590 c0 -674 -5 -635 83 -675 41 -19 82
-27 192 -35 205 -16 245 -31 231 -85 l-6 -25 -723 2 -722 3 -3 27 c-4 37 32
54 160 73 224 33 287 57 314 121 12 28 14 214 14 1166 0 1285 7 1182 -82 1226
-26 13 -114 37 -195 53 -167 32 -213 49 -213 78 0 54 -48 51 725 51 l713 0 6
-26z"/>
</g>
</svg>
